<svg id="Capa_1" data-name="Capa 1" xmlns="http://www.w3.org/2000/svg" viewBox="0 0 463 463"><defs><style>.cls-1{fill:#e5e5e5;}.cls-2{fill:#fff;}</style></defs><title>right-quotes-symbol</title><circle class="cls-1" cx="231.5" cy="231.5" r="231.5"/><circle class="cls-2" cx="231.5" cy="231.5" r="224.96"/><path d="M355.41,214.75v-.07a48.42,48.42,0,1,0-32.65,45.66c-10.87,62.33-59.47,102.52-14.41,69.44C358.31,293.1,355.47,216.16,355.41,214.75Z" transform="translate(-22.52 -22.52)"/><path d="M200.88,263a48.2,48.2,0,0,0,15.64-2.64c-10.87,62.32-59.47,102.52-14.42,69.44,50-36.68,47.13-113.62,47.07-115v-.07A48.29,48.29,0,1,0,200.88,263Z" transform="translate(-22.52 -22.52)"/></svg>