<?xml version="1.0" standalone="no"?>
<!DOCTYPE svg PUBLIC "-//W3C//DTD SVG 20010904//EN"
 "http://www.w3.org/TR/2001/REC-SVG-20010904/DTD/svg10.dtd">
<svg version="1.0" xmlns="http://www.w3.org/2000/svg"
 width="2160.000000pt" height="2160.000000pt" viewBox="0 0 2160.000000 2160.000000"
 preserveAspectRatio="xMidYMid meet">
<metadata>
Created by potrace 1.11, written by Peter Selinger 2001-2013
</metadata>
<g transform="translate(0.000000,2160.000000) scale(0.100000,-0.100000)"
fill="#000000" stroke="none">
<path d="M0 10800 l0 -10800 10800 0 10800 0 0 10800 0 10800 -10800 0 -10800
0 0 -10800z m10607 2515 c19 -8 42 -15 50 -15 8 0 33 -16 56 -35 22 -19 46
-35 52 -35 18 0 75 -67 75 -88 0 -11 9 -31 20 -45 14 -17 17 -28 9 -32 -7 -5
-3 -15 12 -31 20 -22 21 -26 8 -50 -7 -15 -24 -33 -36 -42 -30 -19 -30 -35 0
-27 21 6 21 6 3 -9 -11 -9 -14 -16 -8 -16 7 0 24 -7 38 -17 19 -12 22 -18 12
-24 -19 -13 -36 -11 -18 2 12 8 11 9 -5 5 -11 -3 -47 -8 -80 -11 -66 -7 -125
-23 -125 -33 0 -20 -80 -45 -180 -56 -47 -6 -115 -28 -175 -59 -33 -16 -71
-31 -84 -33 -24 -3 -59 -16 -91 -35 -8 -5 -28 -16 -45 -25 -34 -18 -95 -93
-95 -117 0 -8 -16 -32 -35 -53 -19 -20 -35 -40 -35 -45 0 -5 -17 -25 -38 -46
-47 -46 -79 -136 -87 -238 -3 -38 -7 -101 -11 -140 -8 -101 -6 -119 22 -230
32 -127 117 -290 206 -393 16 -18 26 -37 23 -42 -3 -5 32 -40 77 -80 94 -80
197 -135 333 -176 79 -24 107 -28 230 -28 123 -1 152 2 237 26 195 55 298 118
446 274 89 94 121 146 159 264 29 87 43 287 25 339 -16 45 4 38 28 -10 12 -23
23 -39 26 -37 2 3 -5 36 -15 74 -45 160 -102 302 -108 272 -3 -9 1 -27 7 -38
10 -19 9 -21 -3 -13 -18 9 -158 215 -152 222 3 2 11 -2 20 -9 12 -10 15 -10
15 0 0 10 3 10 15 0 9 -7 18 -10 21 -7 3 3 -4 14 -15 24 -12 9 -21 23 -21 29
0 7 -28 36 -62 65 -93 78 -98 84 -60 65 17 -9 32 -21 32 -26 0 -6 6 -10 13
-10 7 0 55 -42 105 -94 51 -51 92 -91 92 -88 0 27 -157 191 -233 242 -20 14
-37 28 -37 33 0 9 52 -17 106 -54 23 -16 44 -26 46 -23 3 2 11 -4 19 -13 13
-17 13 -17 -6 -3 -11 8 3 -8 30 -35 55 -55 160 -197 160 -217 1 -7 15 -58 33
-113 66 -203 77 -390 32 -520 -27 -79 -121 -299 -130 -305 -4 -3 -44 -48 -89
-100 -45 -52 -99 -108 -120 -125 -60 -48 -134 -115 -128 -115 30 0 293 252
345 330 20 30 40 57 44 61 4 3 20 34 34 70 32 78 39 86 30 34 -4 -22 -25 -77
-47 -123 -32 -67 -57 -102 -132 -179 -271 -281 -567 -402 -912 -373 -70 5
-137 18 -185 34 -41 14 -67 19 -57 11 33 -24 179 -57 282 -63 61 -3 90 -8 75
-12 -35 -9 -192 6 -257 25 -30 9 -57 14 -60 11 -3 -2 19 -12 49 -21 160 -48
420 -61 548 -27 41 11 82 20 90 20 18 0 76 20 112 38 14 8 33 11 42 8 25 -10
221 120 316 210 l85 81 -75 -78 c-41 -43 -96 -94 -122 -114 -26 -20 -45 -40
-42 -45 9 -14 117 49 191 111 78 67 144 146 202 246 21 36 42 61 46 57 5 -4 5
-2 1 5 -4 7 2 29 12 50 19 37 69 169 79 208 3 11 5 30 4 43 -1 14 3 21 10 16
8 -5 10 9 6 47 -4 33 -3 42 2 24 7 -28 7 -27 13 20 11 87 -4 241 -22 230 -6
-3 -10 -2 -10 4 0 5 5 11 11 13 8 3 7 19 -4 58 -8 30 -18 72 -21 92 -4 21 -11
40 -17 43 -6 4 -8 -4 -4 -22 5 -24 5 -25 -5 -10 -7 10 -9 24 -7 31 7 16 -38
116 -52 116 -5 0 -19 21 -31 48 -14 28 -65 90 -129 156 -67 69 -91 99 -66 82
40 -28 40 -28 -10 23 -60 62 -74 76 -100 96 -20 16 -20 16 3 10 12 -4 22 -4
22 -2 0 9 -84 54 -122 66 -21 7 -38 19 -38 27 0 17 5 17 31 4 10 -6 19 -8 19
-5 0 2 -39 24 -86 48 -84 42 -86 44 -68 62 17 17 17 18 2 12 -10 -3 -18 -2
-18 4 0 6 -9 8 -20 4 -15 -5 -18 -3 -14 9 8 22 16 20 84 -14 33 -16 65 -30 72
-30 6 0 21 -8 32 -18 30 -26 88 -49 110 -44 17 4 16 7 -10 29 -16 13 -22 21
-13 16 17 -9 67 -49 173 -139 39 -33 84 -69 99 -79 15 -10 34 -30 42 -44 7
-14 22 -37 34 -49 11 -13 22 -29 24 -35 2 -7 8 -9 12 -4 5 4 -2 18 -15 32 -13
14 -25 35 -27 48 -2 12 -8 24 -13 25 -6 2 -10 8 -10 13 0 23 40 -14 60 -56 22
-45 60 -79 60 -53 -3 60 -125 186 -177 182 -12 -1 -20 2 -18 7 3 4 0 11 -6 15
-8 5 -8 8 0 13 15 10 -149 133 -167 126 -7 -3 -11 -1 -8 4 7 10 -113 91 -135
91 -8 0 -55 18 -103 39 -83 37 -86 39 -58 46 25 5 54 -6 161 -59 147 -73 199
-106 289 -184 34 -30 65 -52 68 -49 3 3 -8 15 -25 28 -19 14 -27 25 -20 30 7
4 -11 29 -45 64 -47 47 -59 55 -71 45 -14 -11 -19 -7 -16 12 0 4 -6 5 -14 2
-9 -4 -15 -1 -15 7 0 7 -10 24 -22 37 l-23 25 25 -13 c14 -7 49 -28 78 -46 28
-19 52 -31 52 -28 0 4 18 -10 40 -30 58 -52 62 -44 7 12 -27 27 -54 49 -61 49
-7 0 -35 15 -62 34 -61 42 -143 81 -155 73 -5 -3 -9 1 -9 10 0 8 -16 20 -36
26 -24 8 -32 15 -24 20 12 8 -30 24 -134 51 -28 7 -45 14 -38 17 39 13 327
-106 417 -172 44 -33 55 -38 55 -28 0 13 -141 105 -210 137 -37 17 -45 24 -25
20 65 -13 353 -171 366 -202 2 -5 28 -28 56 -52 41 -34 50 -47 42 -57 -8 -10
-1 -20 29 -41 22 -15 66 -66 98 -112 33 -47 65 -90 72 -98 7 -7 36 -63 63
-125 28 -62 55 -122 60 -133 11 -26 34 -134 55 -263 21 -134 15 -367 -14 -497
-39 -177 -127 -368 -268 -581 -61 -93 -201 -239 -291 -304 -33 -25 -85 -63
-115 -84 -61 -45 -140 -82 -287 -138 -101 -38 -262 -74 -287 -64 -7 3 -14 0
-16 -5 -2 -6 -46 -12 -98 -14 -60 -2 -77 -1 -45 3 42 6 26 9 -103 20 -164 13
-355 55 -447 98 -27 13 -39 21 -25 19 17 -4 13 1 -15 16 -102 54 -174 102
-168 112 3 6 1 7 -5 3 -11 -7 -72 19 -72 30 0 3 5 2 10 -1 6 -3 10 -2 10 3 0
6 -7 12 -15 16 -8 3 -15 1 -15 -5 0 -6 -7 -6 -20 1 -11 6 -18 15 -15 20 3 5 0
12 -6 16 -8 5 -9 3 -4 -6 5 -8 3 -11 -6 -8 -8 3 -12 12 -11 19 2 8 0 11 -3 7
-11 -11 -47 11 -39 24 4 6 3 8 -4 4 -10 -6 -26 10 -27 26 0 3 -4 10 -9 15 -5
5 -6 3 -2 -4 4 -7 3 -13 -2 -13 -6 0 -43 37 -83 83 -74 84 -105 110 -74 63 10
-15 16 -29 13 -31 -5 -5 -74 92 -170 240 -59 92 -102 175 -169 330 -14 31 -46
181 -60 274 -7 53 -9 118 -4 180 4 53 8 120 10 148 7 119 51 270 127 438 81
176 135 268 193 325 47 47 139 160 129 160 -2 0 -28 -21 -57 -47 l-52 -48 59
64 c99 109 174 165 315 237 50 25 93 49 96 54 8 13 155 58 230 70 39 6 93 9
120 6 39 -4 122 4 143 13 1 0 19 -6 39 -14z m-6842 -280 c108 -17 256 -53 346
-84 76 -26 239 -102 239 -111 0 -10 -208 -511 -214 -518 -3 -2 -52 16 -109 42
-252 112 -465 154 -691 135 -189 -16 -306 -98 -306 -214 0 -123 83 -169 455
-254 482 -111 630 -170 781 -313 121 -115 165 -203 186 -374 54 -438 -254
-779 -793 -881 -134 -25 -499 -24 -659 1 -235 36 -448 102 -610 187 -126 66
-127 30 6 325 63 142 117 260 119 262 2 2 23 -9 47 -24 69 -44 215 -109 318
-142 337 -107 712 -102 827 13 73 73 59 200 -31 254 -57 34 -176 71 -460 141
-383 94 -492 133 -622 225 -184 131 -267 296 -267 535 -1 139 16 210 77 335
133 271 414 428 856 479 74 9 410 -4 505 -19z m3658 -5 c273 -53 494 -167 676
-348 91 -91 93 -94 75 -111 -11 -10 -113 -102 -227 -206 l-208 -187 -67 64
c-77 73 -132 113 -217 155 -104 51 -176 67 -315 68 -149 0 -203 -12 -330 -72
-126 -61 -225 -157 -288 -283 -63 -128 -77 -190 -77 -360 0 -168 13 -231 75
-357 117 -239 368 -377 655 -360 204 12 341 75 502 230 l61 60 222 -201 c121
-111 221 -205 220 -209 0 -17 -107 -129 -175 -182 -195 -155 -438 -251 -715
-282 -134 -15 -373 -5 -501 20 -485 97 -857 413 -1003 851 -49 148 -61 231
-61 430 0 140 5 205 18 270 39 183 112 350 214 492 77 107 240 261 346 326
177 110 394 186 598 211 132 15 396 6 522 -19z m3692 0 c13 -6 15 -9 5 -9 -8
0 -22 4 -30 9 -18 12 -2 12 25 0z m3975 -47 c414 -90 675 -308 772 -648 20
-70 23 -102 23 -255 0 -186 -8 -235 -59 -362 -122 -302 -431 -507 -841 -557
-49 -6 -215 -11 -367 -11 l-278 0 0 -330 0 -330 -360 0 -360 0 0 1261 0 1260
688 -4 c647 -4 693 -5 782 -24z m4190 -248 l0 -275 -635 0 -635 0 0 -215 0
-215 560 0 560 0 0 -265 0 -265 -560 0 -560 0 0 -230 0 -230 660 0 660 0 0
-275 0 -275 -1015 0 -1015 0 0 1260 0 1260 990 0 990 0 0 -275z m-8344 198
c-7 -7 -26 7 -26 19 0 6 6 6 15 -2 9 -7 13 -15 11 -17z m-36 13 c0 -2 -7 -7
-16 -10 -8 -3 -12 -2 -9 4 6 10 25 14 25 6z m45 -52 c19 -16 19 -16 -5 -9 -31
9 -50 25 -29 25 7 0 23 -8 34 -16z m100 -24 c3 -5 2 -10 -4 -10 -5 0 -13 5
-16 10 -3 6 -2 10 4 10 5 0 13 -4 16 -10z m-188 -36 c-3 -3 -12 -4 -19 -1 -8
3 -5 6 6 6 11 1 17 -2 13 -5z m206 -21 c4 -7 13 -13 20 -13 19 0 134 -57 142
-70 4 -7 -2 -6 -16 3 -13 8 -59 29 -101 47 -78 32 -104 49 -70 46 9 0 21 -7
25 -13z m-28 -33 c3 -5 17 -10 30 -10 13 0 27 -4 30 -10 3 -5 -13 -9 -40 -8
-25 0 -45 5 -45 10 0 5 6 6 13 3 6 -4 3 1 -7 9 -17 14 -17 16 -4 16 9 0 20 -4
23 -10z m600 -69 c-3 -3 -18 8 -33 23 l-27 29 32 -23 c18 -13 30 -26 28 -29z
m-755 -46 c41 -9 86 -17 99 -19 13 -2 26 -8 30 -13 3 -5 15 -15 26 -22 19 -11
18 -12 -5 -6 -14 4 -34 10 -45 15 -42 19 -178 40 -267 42 -75 1 -84 2 -48 8
77 12 132 11 210 -5z m-273 -11 c-3 -3 -12 -4 -19 -1 -8 3 -5 6 6 6 11 1 17
-2 13 -5z m-446 -52 c-37 -27 -158 -161 -179 -198 -6 -10 -13 -16 -16 -13 -8
8 163 221 173 215 4 -3 13 -1 21 5 25 15 26 9 1 -9z m1205 -194 c3 -5 4 -11 2
-13 -2 -3 -33 25 -69 62 l-64 67 63 -53 c34 -29 65 -57 68 -63z m184 -1 c0 -5
-9 -2 -20 8 -11 10 -20 25 -20 34 1 12 5 10 20 -8 11 -13 20 -28 20 -34z
m-1604 -74 c-18 -33 -21 -26 -6 13 6 15 13 24 16 21 3 -3 -1 -18 -10 -34z
m1921 -525 c-3 -8 -6 -5 -6 6 -1 11 2 17 5 13 3 -3 4 -12 1 -19z m20 0 c-3 -8
-6 -5 -6 6 -1 11 2 17 5 13 3 -3 4 -12 1 -19z m-31 -133 c-4 -35 -11 -75 -17
-87 -8 -19 -9 -18 -4 11 3 19 8 59 12 88 3 29 8 53 11 53 3 0 2 -29 -2 -65z
m-209 -107 c-3 -8 -6 -5 -6 6 -1 11 2 17 5 13 3 -3 4 -12 1 -19z m110 -70 c-3
-7 -5 -2 -5 12 0 14 2 19 5 13 2 -7 2 -19 0 -25z m60 10 c-3 -8 -6 -5 -6 6 -1
11 2 17 5 13 3 -3 4 -12 1 -19z m-165 -155 c-11 -16 -34 -54 -53 -86 -71 -123
-242 -278 -389 -352 -51 -25 -37 -15 70 56 52 34 128 94 169 133 71 68 191
233 191 262 0 8 7 14 15 14 13 0 13 -4 -3 -27z m-1 -131 c-28 -39 -59 -76 -68
-83 -9 -8 6 17 35 54 28 37 57 77 63 88 6 12 13 18 16 15 3 -3 -18 -36 -46
-74z m-141 -25 c0 -2 -12 -14 -27 -28 l-28 -24 24 28 c23 25 31 32 31 24z
m-50 -61 c0 -1 -28 -27 -62 -57 l-63 -54 49 58 c28 31 56 57 63 57 7 0 13 -2
13 -4z m-160 -131 c0 -3 -31 -26 -70 -50 -38 -25 -72 -50 -75 -55 -17 -28
-208 -101 -310 -119 -38 -7 -77 -8 -105 -2 -32 6 -37 9 -18 10 52 2 208 32
243 47 19 7 46 14 60 14 15 0 23 4 20 10 -4 6 1 7 11 3 13 -5 15 -3 9 7 -5 8
-4 11 3 7 13 -8 44 2 37 12 -2 4 17 17 43 29 26 12 70 37 97 56 55 38 55 38
55 31z m-1610 -170 c14 -19 14 -19 -2 -6 -10 7 -18 18 -18 24 0 6 1 8 3 6 1
-2 9 -13 17 -24z m70 -57 c0 -6 -7 -5 -15 2 -8 7 -15 17 -15 22 0 6 7 5 15 -2
8 -7 15 -17 15 -22z m55 -78 c21 -22 37 -40 34 -40 -3 0 -23 18 -44 40 -21 22
-37 40 -34 40 3 0 23 -18 44 -40z m185 -141 c17 -13 18 -17 5 -10 -33 17 -51
31 -40 31 6 0 21 -10 35 -21z m195 -94 c39 -16 108 -38 155 -51 47 -12 75 -23
64 -23 -39 -2 -197 49 -291 94 -51 24 -93 46 -93 50 0 3 21 -5 48 -18 26 -13
79 -37 117 -52z m388 -92 c48 -3 87 -9 87 -12 0 -11 -125 0 -183 15 -29 7 -38
11 -22 8 17 -2 69 -7 118 -11z m145 -20 c-10 -2 -26 -2 -35 0 -10 3 -2 5 17 5
19 0 27 -2 18 -5z m-7338 -443 l0 -30 -255 0 -255 0 0 -670 0 -670 -35 0 -35
0 0 670 0 670 -255 0 -255 0 0 30 0 30 545 0 545 0 0 -30z m3804 6 c129 -38
214 -95 275 -187 99 -148 92 -388 -16 -531 -41 -54 -131 -119 -190 -138 -21
-7 -42 -16 -46 -20 -5 -4 60 -104 145 -221 84 -118 164 -229 176 -246 l23 -33
-39 0 -40 0 -173 241 -173 241 -44 -6 c-25 -3 -152 -6 -283 -6 l-239 0 0 -235
0 -235 -35 0 -35 0 0 701 0 701 318 -5 c262 -3 327 -7 376 -21z m3646 -676 l0
-700 -35 0 -35 0 0 700 0 700 35 0 35 0 0 -700z m4144 13 c175 -379 321 -694
324 -701 3 -10 -5 -13 -33 -10 l-38 3 -91 200 -92 200 -420 3 -420 2 -94 -205
-93 -205 -38 0 -37 0 295 638 c162 350 308 665 323 700 27 58 31 62 63 62 l33
0 318 -687z m3508 20 l3 -668 408 -3 407 -2 0 -30 0 -30 -440 0 -440 0 0 700
0 700 30 0 30 0 2 -667z"/>
<path d="M10797 12903 c-13 -13 -7 -21 13 -16 11 3 20 9 20 14 0 10 -24 12
-33 2z"/>
<path d="M11680 12892 c0 -13 77 -82 92 -82 14 0 -26 44 -64 72 -16 10 -28 15
-28 10z"/>
<path d="M10660 12840 c0 -13 11 -13 30 0 12 8 11 10 -7 10 -13 0 -23 -4 -23
-10z"/>
<path d="M11680 12816 c0 -3 9 -15 20 -26 11 -11 20 -27 20 -36 0 -8 28 -43
63 -77 134 -133 252 -388 293 -632 24 -148 25 -168 14 -276 -6 -61 -8 -114 -5
-117 3 -3 5 5 5 18 0 13 6 31 14 39 32 36 22 322 -16 471 -11 41 -23 91 -27
110 -12 52 -56 145 -80 169 -12 12 -20 25 -18 29 1 4 -12 21 -29 37 -16 17
-23 24 -14 18 31 -24 35 -12 4 15 -17 15 -41 43 -54 62 -41 60 -190 214 -190
196z"/>
<path d="M11831 12717 c18 -26 40 -53 48 -60 22 -18 -19 42 -53 78 -27 28 -27
27 5 -18z"/>
<path d="M11481 12747 c2 -1 13 -9 24 -17 19 -14 19 -14 6 3 -7 9 -18 17 -24
17 -6 0 -8 -1 -6 -3z"/>
<path d="M11704 12424 c3 -8 2 -12 -4 -9 -21 13 -8 -12 20 -38 17 -16 27 -33
24 -38 -3 -5 0 -8 7 -7 6 2 21 -14 33 -35 11 -21 22 -34 24 -27 2 6 -11 35
-30 63 -18 29 -39 64 -46 80 -12 28 -39 39 -28 11z"/>
<path d="M11917 12389 c7 -7 15 -10 18 -7 3 3 -2 9 -12 12 -14 6 -15 5 -6 -5z"/>
<path d="M11510 12214 c0 -6 7 -19 15 -30 8 -10 14 -14 14 -9 0 6 -6 19 -14
29 -8 11 -15 15 -15 10z"/>
<path d="M11540 12130 c0 -8 12 -37 25 -65 14 -27 23 -42 20 -32 -3 11 -8 31
-12 45 -8 34 -33 73 -33 52z"/>
<path d="M11897 12020 c3 -25 7 -47 9 -49 8 -9 2 55 -6 74 -6 13 -7 5 -3 -25z"/>
<path d="M11915 11764 c0 -109 3 -185 6 -169 9 41 10 281 1 329 -4 21 -7 -51
-7 -160z"/>
<path d="M9680 11821 c0 -7 9 -58 21 -114 19 -96 66 -228 96 -272 7 -11 13
-26 13 -35 0 -18 94 -159 142 -212 53 -59 177 -157 237 -188 71 -35 203 -77
273 -86 55 -7 82 -20 72 -35 -11 -19 196 -15 281 5 81 19 232 78 280 109 19
12 60 37 93 55 32 18 59 40 59 48 0 8 -1 14 -3 14 -1 0 -32 -18 -69 -39 -155
-91 -348 -135 -559 -127 -149 5 -221 23 -345 85 -119 59 -138 71 -148 92 -4 9
-42 44 -83 76 -89 70 -118 105 -192 233 -66 113 -97 184 -132 304 -25 86 -36
113 -36 87z"/>
<path d="M12102 11670 c0 -14 2 -19 5 -12 2 6 2 18 0 25 -3 6 -5 1 -5 -13z"/>
<path d="M12065 11609 c-4 -6 -5 -12 -2 -15 2 -3 7 2 10 11 7 17 1 20 -8 4z"/>
<path d="M11985 11369 c-4 -6 -5 -12 -2 -15 2 -3 7 2 10 11 7 17 1 20 -8 4z"/>
<path d="M11276 11135 c-11 -8 -15 -15 -9 -15 6 0 16 7 23 15 16 19 11 19 -14
0z"/>
<path d="M10935 10897 c-155 -52 -169 -58 -120 -50 44 6 196 57 235 79 40 21
14 15 -115 -29z"/>
<path d="M11749 10873 c-26 -28 -28 -33 -10 -22 22 14 60 59 49 59 -2 0 -20
-17 -39 -37z"/>
<path d="M9756 10847 c3 -10 9 -15 12 -12 3 3 0 11 -7 18 -10 9 -11 8 -5 -6z"/>
<path d="M11145 10820 c-3 -6 1 -7 9 -4 18 7 21 14 7 14 -6 0 -13 -4 -16 -10z"/>
<path d="M9790 10810 c0 -5 5 -10 11 -10 5 0 7 5 4 10 -3 6 -8 10 -11 10 -2 0
-4 -4 -4 -10z"/>
<path d="M11708 10775 c-102 -82 -271 -187 -375 -234 -62 -28 -120 -51 -129
-51 -8 0 -36 -9 -62 -19 -83 -35 -241 -53 -387 -46 -137 7 -329 30 -348 42
-16 10 -171 52 -175 48 -8 -8 222 -75 298 -86 44 -7 76 -16 69 -19 -6 -4 47
-8 118 -8 70 -1 144 -2 163 -3 56 -3 251 30 274 46 11 8 28 15 37 15 10 0 30
7 46 15 15 8 77 37 137 65 106 50 255 148 346 229 55 50 47 54 -12 6z"/>
<path d="M11599 10763 c-13 -16 -12 -17 4 -4 16 13 21 21 13 21 -2 0 -10 -8
-17 -17z"/>
<path d="M10050 10615 c0 -6 76 -45 87 -45 4 0 -12 11 -36 25 -44 26 -51 28
-51 20z"/>
<path d="M14340 12081 l0 -371 228 0 c251 0 330 9 413 46 118 53 180 151 187
296 5 107 -8 166 -53 235 -41 62 -99 104 -186 134 -58 21 -87 23 -326 27
l-263 4 0 -371z"/>
<path d="M6570 9475 l0 -407 278 4 c303 5 330 10 445 71 65 34 115 89 149 163
20 42 23 65 23 169 0 104 -3 127 -23 169 -34 74 -84 129 -149 163 -115 61
-142 66 -445 71 l-278 4 0 -407z"/>
<path d="M14438 9438 l-195 -423 385 -3 c212 -1 387 0 389 2 3 3 -372 832
-382 844 -1 1 -90 -188 -197 -420z"/>
</g>
</svg>
